<svg width="32" height="32" viewBox="0 0 32 32" fill="none" xmlns="http://www.w3.org/2000/svg">
<path d="M27.2713 4.30005L17.7046 11.6667L19.4713 7.43338L27.2713 4.30005Z" fill="#E17726" stroke="#E17726" stroke-width="0.25" stroke-linecap="round" stroke-linejoin="round"/>
<path d="M4.72 4.30005L14.2067 11.7334L12.5287 7.43338L4.72 4.30005Z" fill="#E27625" stroke="#E27625" stroke-width="0.25" stroke-linecap="round" stroke-linejoin="round"/>
<path d="M23.5767 21.0667L21.0967 25.0334L26.7234 26.6L28.3634 21.1667L23.5767 21.0667Z" fill="#E27625" stroke="#E27625" stroke-width="0.25" stroke-linecap="round" stroke-linejoin="round"/>
<path d="M3.64673 21.1667L5.2734 26.6L10.9001 25.0334L8.42007 21.0667L3.64673 21.1667Z" fill="#E27625" stroke="#E27625" stroke-width="0.25" stroke-linecap="round" stroke-linejoin="round"/>
<path d="M10.5733 14.2667L9.07324 16.5667L14.6599 16.8L14.4666 10.8L10.5733 14.2667Z" fill="#E27625" stroke="#E27625" stroke-width="0.25" stroke-linecap="round" stroke-linejoin="round"/>
<path d="M21.4266 14.2667L17.4799 10.7333L17.3599 16.8L22.9266 16.5667L21.4266 14.2667Z" fill="#E27625" stroke="#E27625" stroke-width="0.25" stroke-linecap="round" stroke-linejoin="round"/>
<path d="M10.9001 25.0333L14.1534 23.4467L11.3401 21.2067L10.9001 25.0333Z" fill="#E27625" stroke="#E27625" stroke-width="0.25" stroke-linecap="round" stroke-linejoin="round"/>
<path d="M17.8467 23.4467L21.0967 25.0333L20.66 21.2067L17.8467 23.4467Z" fill="#E27625" stroke="#E27625" stroke-width="0.25" stroke-linecap="round" stroke-linejoin="round"/>
<path d="M21.0967 25.0333L17.8467 23.4467L18.0934 25.5267L18.0667 26.5333L21.0967 25.0333Z" fill="#D5BFB2" stroke="#D5BFB2" stroke-width="0.25" stroke-linecap="round" stroke-linejoin="round"/>
<path d="M10.9001 25.0333L13.9334 26.5333L13.9134 25.5267L14.1534 23.4467L10.9001 25.0333Z" fill="#D5BFB2" stroke="#D5BFB2" stroke-width="0.25" stroke-linecap="round" stroke-linejoin="round"/>
<path d="M13.9733 19.5667L11.2666 18.7333L13.2266 17.8333L13.9733 19.5667Z" fill="#233447" stroke="#233447" stroke-width="0.25" stroke-linecap="round" stroke-linejoin="round"/>
<path d="M18.0267 19.5667L18.7734 17.8333L20.74 18.7333L18.0267 19.5667Z" fill="#233447" stroke="#233447" stroke-width="0.25" stroke-linecap="round" stroke-linejoin="round"/>
<path d="M10.9001 25.0333L11.3534 21.0667L8.42007 21.1667L10.9001 25.0333Z" fill="#CC6228" stroke="#CC6228" stroke-width="0.25" stroke-linecap="round" stroke-linejoin="round"/>
<path d="M20.6467 21.0667L21.0967 25.0333L23.5767 21.1667L20.6467 21.0667Z" fill="#CC6228" stroke="#CC6228" stroke-width="0.25" stroke-linecap="round" stroke-linejoin="round"/>
<path d="M22.9266 16.5667L17.3599 16.8L18.0333 19.5667L18.78 17.8333L20.7466 18.7333L22.9266 16.5667Z" fill="#CC6228" stroke="#CC6228" stroke-width="0.25" stroke-linecap="round" stroke-linejoin="round"/>
<path d="M11.2666 18.7333L13.2333 17.8333L13.9733 19.5667L14.6599 16.8L9.07324 16.5667L11.2666 18.7333Z" fill="#CC6228" stroke="#CC6228" stroke-width="0.25" stroke-linecap="round" stroke-linejoin="round"/>
<path d="M9.07324 16.5667L11.3399 21.2067L11.2666 18.7333L9.07324 16.5667Z" fill="#E27525" stroke="#E27525" stroke-width="0.25" stroke-linecap="round" stroke-linejoin="round"/>
<path d="M20.7466 18.7333L20.66 21.2067L22.9266 16.5667L20.7466 18.7333Z" fill="#E27525" stroke="#E27525" stroke-width="0.25" stroke-linecap="round" stroke-linejoin="round"/>
<path d="M14.6599 16.8L13.9733 19.5667L14.8199 23.1L15.0266 18.4333L14.6599 16.8Z" fill="#E27525" stroke="#E27525" stroke-width="0.25" stroke-linecap="round" stroke-linejoin="round"/>
<path d="M17.3599 16.8L17.0066 18.4267L17.18 23.1L18.0333 19.5667L17.3599 16.8Z" fill="#E27525" stroke="#E27525" stroke-width="0.25" stroke-linecap="round" stroke-linejoin="round"/>
<path d="M18.0333 19.5667L17.18 23.1L17.8467 23.4467L20.66 21.2067L20.7466 18.7333L18.0333 19.5667Z" fill="#F5841F" stroke="#F5841F" stroke-width="0.25" stroke-linecap="round" stroke-linejoin="round"/>
<path d="M11.2666 18.7333L11.3399 21.2067L14.1533 23.4467L14.8199 23.1L13.9733 19.5667L11.2666 18.7333Z" fill="#F5841F" stroke="#F5841F" stroke-width="0.25" stroke-linecap="round" stroke-linejoin="round"/>
<path d="M18.0667 26.5333L18.0934 25.5267L17.8667 25.3333H14.1334L13.9134 25.5267L13.9334 26.5333L10.9001 25.0333L11.9801 25.9L14.1067 27.4333H17.8934L20.0201 25.9L21.0967 25.0333L18.0667 26.5333Z" fill="#C0AC9D" stroke="#C0AC9D" stroke-width="0.25" stroke-linecap="round" stroke-linejoin="round"/>
<path d="M17.8467 23.4467L17.18 23.1H14.8199L14.1533 23.4467L13.9133 25.5267L14.1333 25.3333H17.8666L18.0933 25.5267L17.8467 23.4467Z" fill="#161616" stroke="#161616" stroke-width="0.25" stroke-linecap="round" stroke-linejoin="round"/>
<path d="M27.7467 12.2667L28.4667 8.76672L27.2733 4.30005L17.8467 11.5L21.4267 14.2667L26.5133 15.7667L27.7933 14.2933L27.2533 13.9L27.94 13.2733L27.2733 12.7533L27.96 12.2267L27.7467 12.2667Z" fill="#763E1A" stroke="#763E1A" stroke-width="0.25" stroke-linecap="round" stroke-linejoin="round"/>
<path d="M3.5332 8.76672L4.25987 12.2667L4.0332 12.2267L4.71987 12.7533L4.05987 13.2733L4.7332 13.9L4.19987 14.2933L5.4732 15.7667L10.5599 14.2667L14.1399 11.5L4.71987 4.30005L3.5332 8.76672Z" fill="#763E1A" stroke="#763E1A" stroke-width="0.25" stroke-linecap="round" stroke-linejoin="round"/>
<path d="M26.5133 15.7667L21.4267 14.2667L22.9267 16.5667L20.66 21.2067L23.5767 21.1667H28.3633L26.5133 15.7667Z" fill="#F5841F" stroke="#F5841F" stroke-width="0.25" stroke-linecap="round" stroke-linejoin="round"/>
<path d="M10.5733 14.2667L5.48663 15.7667L3.64663 21.1667H8.41996L11.34 21.2067L9.07329 16.5667L10.5733 14.2667Z" fill="#F5841F" stroke="#F5841F" stroke-width="0.25" stroke-linecap="round" stroke-linejoin="round"/>
<path d="M17.3599 16.8L17.8466 11.5L19.4799 7.43335H12.5199L14.1399 11.5L14.6599 16.8L14.8066 18.4467L14.8199 23.1H17.1799L17.1999 18.4467L17.3599 16.8Z" fill="#F5841F" stroke="#F5841F" stroke-width="0.25" stroke-linecap="round" stroke-linejoin="round"/>
</svg>
