<svg width="32" height="32" viewBox="0 0 32 32" fill="none" xmlns="http://www.w3.org/2000/svg">
<circle cx="13.3599" cy="13.3599" r="13.3599" transform="matrix(-1 0 0 1 29.5664 2.55469)" stroke="#D9D9D9" strokeWidth="4" strokeLinecap="round"/>
<path d="M23.2823 16.4289C23.2518 16.4024 23.2126 16.3877 23.172 16.3877H9.4262C9.38561 16.3877 9.34641 16.4024 9.31594 16.4289L6.21771 19.1302C6.10218 19.2309 6.17409 19.4197 6.32798 19.4197H26.2703C26.4241 19.4197 26.496 19.2309 26.3805 19.1302L23.2823 16.4289Z" fill="#D9D9D9"/>
<path d="M23.3057 11.6115C23.2752 11.585 23.2361 11.5703 23.1955 11.5703H9.44964C9.40905 11.5703 9.36985 11.585 9.33938 11.6115L6.24115 14.3128C6.12562 14.4135 6.19752 14.6024 6.35141 14.6024H26.2937C26.4476 14.6024 26.5195 14.4135 26.404 14.3128L23.3057 11.6115Z" fill="#D9D9D9"/>
<path d="M20.7539 9.07147C20.7539 8.9786 20.6812 8.90332 20.5915 8.90332H17.5053C17.4156 8.90332 17.3429 8.9786 17.3429 9.07147V11.3882C17.3429 11.4811 17.4156 11.5564 17.5053 11.5564H20.5915C20.6812 11.5564 20.7539 11.4811 20.7539 11.3882V9.07147Z" fill="#D9D9D9"/>
<path d="M15.3516 9.17987C15.3516 9.087 15.2768 9.01172 15.1846 9.01172H12.0127C11.9205 9.01172 11.8458 9.087 11.8458 9.17987V11.4966C11.8458 11.5895 11.9205 11.6648 12.0127 11.6648H15.1846C15.2768 11.6648 15.3516 11.5895 15.3516 11.4966V9.17987Z" fill="#D9D9D9"/>
<path d="M20.7539 18.3386C20.7539 18.2034 20.6468 18.0938 20.5147 18.0938H12.0865C11.9544 18.0938 11.8473 18.2034 11.8473 18.3386V20.9757C11.8473 21.1109 11.9544 21.2205 12.0865 21.2205H20.5147C20.6468 21.2205 20.7539 21.1109 20.7539 20.9757V18.3386Z" fill="#D9D9D9"/>
</svg>
